<?xml version="1.0" encoding="utf-8"?>
<!-- Generator: Adobe Illustrator 22.1.0, SVG Export Plug-In . SVG Version: 6.00 Build 0)  -->
<svg version="1.1" id="Layer_1" xmlns="http://www.w3.org/2000/svg" xmlns:xlink="http://www.w3.org/1999/xlink" x="0px" y="0px"
	 viewBox="0 0 409 107.2" style="enable-background:new 0 0 409 107.2;" xml:space="preserve">
<style type="text/css">
	.st0{fill-rule:evenodd;clip-rule:evenodd;fill:#4D5858;}
</style>
<path class="st0" d="M19.5,11.6c0-3.6,2.9-6.4,6.4-6.4c3.6,0,6.4,2.9,6.4,6.4c0,3.6-2.9,6.4-6.4,6.4C22.4,18,19.5,15.1,19.5,11.6z
	 M168.8,40.3c-3.9,0-7.6,2.7-8.9,3.8V26.9h-5.1v38.5h5.1V46.2c1.1-1.4,3.8-2.7,6.4-2.7c4.8,0,6.3,2.9,6.3,6v15.9h5V47.7
	C177.6,42.8,173.3,40.3,168.8,40.3z M138.9,36.1l-7.6,7.1h2.5v15c0,5.1,3.5,7.7,8.2,7.7c3.4,0,5.9-2.2,5.9-3.6
	c-0.8,0.6-1.4,1.4-3.8,1.4c-1.8,0-5.3-0.5-5.3-5.5V43.2h8.2V41h-8.1V36.1z M84.1,53.4c0.2,5.7,3.1,10.6,7.9,10.4
	c5.1-0.2,7.4-5.1,7.2-11c-0.3-5.3-2.8-10.7-8-10.5C86,42.4,83.8,47.8,84.1,53.4z M104.5,53.1c0,6.2-5.1,12.7-12.9,12.7
	c-9.3,0-12.9-7.1-12.9-12.7c0-6.3,4.8-12.8,13-12.8C100.6,40.4,104.6,46.8,104.5,53.1z M243.2,26.9v38.5h5.1V26.9H243.2z M62.4,40.3
	c-3.8,0-7.2,2.5-8.5,3.8l-0.8-2.9h-4.3v24.2h5.1V46.2c1.1-1.3,3.5-2.7,5.9-2.7c5.2,0,6.2,3.2,6.2,6.1v15.8h5V47.7
	C71.1,43,66.8,40.3,62.4,40.3z M116.7,41.2h-4.3l0,24.2h5.1V46c0.7-0.8,2.6-1.9,4.6-2c1.4,0,2.8,0.4,3.9,1.7v-5
	c-0.6-0.3-1.3-0.4-1.9-0.4c-2.7,0-5.7,2.2-6.6,3.7L116.7,41.2z M300.2,40.3c-3.8,0-7.2,2.5-8.5,3.8l-0.8-2.9h-4.3v24.2h5.1V46.2
	c1.1-1.3,3.5-2.7,5.9-2.7c5.2,0,6.2,3.2,6.2,6.1v15.8h5V47.7C308.9,43,304.6,40.3,300.2,40.3z M233.7,41.9c-2.7-1.3-4.9-1.5-6.5-1.5
	c-6.5,0-8.7,3.9-8.7,6.5c0,3,1.4,4.8,6.1,7.1c4.1,2.2,6.2,3,6.2,5.6c0,1.3-1.1,4.2-5.3,4.2c-3.9,0-6.5-3.5-7.5-7.2v6.8
	c1.9,1.1,4.5,2.5,7.8,2.5c4.3,0,9.9-2.5,9.9-7.3c0-4.3-4.1-6.4-7.9-8.3c-3.1-1.6-5-2.6-5-4.8c0-1.4,1.4-3.2,4.4-3.2
	c3.6,0,5.5,3.3,6.5,6V41.9z M334.8,61.1V44.9c-0.8-1.2-2.3-2.5-4.7-2.5c-5.5,0-8.9,4.2-8.9,10.1c0,8.5,5.8,10.5,8.5,10.5
	C331.8,63.1,333.9,61.9,334.8,61.1z M340,65.8h-4.2L335,63c-1.4,1.2-4.5,2.9-7.6,2.9c-8.1,0-11.6-6.6-11.6-13.1
	c0-5.8,5-12.4,13.5-12.4c2.5,0,4.2,0.7,5.5,1.7V26.9h5.2V65.8z M265.6,62.9c2.9,0,5.1-1.2,6.7-2.7v-8.6c-1.9,0.8-3.5,1.2-6.3,2
	c-2.8,1-4.9,2.2-4.9,4.9C261.1,61.3,262.8,62.9,265.6,62.9z M267.9,40.3c3.4,0,9.2,0.9,9.2,7.1l0,18.4l-3.7,0l-1.1-3.9
	c-1.8,1.7-5,3.9-9.2,3.9c-5.2,0-7-4.2-7-6.5c0-2,0.9-4.3,3.9-6c3.1-1.7,10.2-2.5,12-4.2c0.2-0.2,0.2-2,0.2-2.2
	c0-2.2-1.4-4.6-5.1-4.6c-5,0-7,3.4-8.5,7.2l-0.1-6.6C260.8,41.7,263.2,40.3,267.9,40.3z M208.5,41.2v24.2h-5.1V41.2H208.5z
	 M205.9,26.5c1.5,0,2.9,1.3,2.9,2.8c0,1.6-1.4,3-2.9,3c-1.6,0-2.9-1.4-2.9-3C203,27.8,204.3,26.5,205.9,26.5z M382.5,99.2
	c0,0,1.3,1.3,3.1,1.3c1.1,0,2.1-0.6,2.1-1.8c0-2.6-5.9-2.1-5.9-5.8c0-1.9,1.6-3.4,3.9-3.4c2.3,0,3.5,1.2,3.5,1.2l-0.8,1.4
	c0,0-1.1-1.1-2.7-1.1c-1.3,0-2.2,0.8-2.2,1.8c0,2.5,5.9,1.8,5.9,5.8c0,1.9-1.5,3.4-3.9,3.4c-2.6,0-4-1.6-4-1.6L382.5,99.2z
	 M367.4,89.7h7.1v1.5h-5.4V95h4.4v1.5h-4.4v3.9h5.7v1.5h-7.4V89.7z M353.1,89.7h1.7v10.7h5.5v1.5h-7.2V89.7z M338.8,89.7h1.7v10.7
	h5.5v1.5h-7.2V89.7z M323.7,89.7h7.1v1.5h-5.4V95h4.4v1.5h-4.4v3.9h5.7v1.5h-7.4V89.7z M305.4,89.7h1.7v5.4h6.3v-5.4h1.7v12.2h-1.7
	v-5.4h-6.3v5.4h-1.7V89.7z M293.2,89.5c2.9,0,4.4,1.6,4.4,1.6l-0.8,1.3c0,0-1.4-1.3-3.5-1.3c-2.7,0-4.5,2.1-4.5,4.7
	c0,2.6,1.8,4.8,4.5,4.8c2.3,0,3.8-1.6,3.8-1.6l0.9,1.2c0,0-1.7,1.9-4.7,1.9c-3.7,0-6.2-2.8-6.2-6.4C287,92.2,289.6,89.5,293.2,89.5z
	 M275,96.7l-4.1-7h1.9l2.3,4c0.4,0.7,0.7,1.5,0.8,1.5c0,0,0.4-0.8,0.7-1.5l2.2-4h1.9l-4.1,7v5.2H275V96.7z M257.4,89.7h7.1v1.5h-5.4
	V95h4.4v1.5h-4.4v3.9h5.7v1.5h-7.4V89.7z M242.8,99.2c0,0,1.3,1.3,3.1,1.3c1.1,0,2.1-0.6,2.1-1.8c0-2.6-5.9-2.1-5.9-5.8
	c0-1.9,1.6-3.4,3.9-3.4c2.3,0,3.5,1.2,3.5,1.2l-0.8,1.4c0,0-1.1-1.1-2.7-1.1c-1.3,0-2.2,0.8-2.2,1.8c0,2.5,5.9,1.8,5.9,5.8
	c0,1.9-1.5,3.4-3.9,3.4c-2.6,0-4-1.6-4-1.6L242.8,99.2z"/>
</svg>
